<?xml version="1.0" encoding="iso-8859-1"?>
<!-- Generator: Adobe Illustrator 19.0.0, SVG Export Plug-In . SVG Version: 6.00 Build 0)  -->
<svg version="1.1" id="Capa_1" xmlns="http://www.w3.org/2000/svg" xmlns:xlink="http://www.w3.org/1999/xlink" x="0px" y="0px"
	 viewBox="0 0 512 512" style="enable-background:new 0 0 512 512;" xml:space="preserve">
<g>
	<g>
		<path d="M336,0H176C78.798,0,0,78.798,0,176v64c0,97.202,78.798,176,176,176h16v80c0,8.837,7.163,16,16,16
			c4.197-0.018,8.22-1.684,11.2-4.64L310.56,416H336c97.202,0,176-78.798,176-176v-64C512,78.798,433.202,0,336,0z M480,240
			c0,79.529-64.471,144-144,144h-32c-4.276,0.018-8.367,1.746-11.36,4.8L224,457.44V400c0-8.837-7.163-16-16-16h-32
			c-79.529,0-144-64.471-144-144v-64C32,96.471,96.471,32,176,32h160c79.529,0,144,64.471,144,144V240z"/>
	</g>
</g>
<g>
</g>
<g>
</g>
<g>
</g>
<g>
</g>
<g>
</g>
<g>
</g>
<g>
</g>
<g>
</g>
<g>
</g>
<g>
</g>
<g>
</g>
<g>
</g>
<g>
</g>
<g>
</g>
<g>
</g>
</svg>
